<?xml version="1.0" encoding="utf-8"?>
<!-- Generator: Adobe Illustrator 16.0.0, SVG Export Plug-In . SVG Version: 6.00 Build 0)  -->
<!DOCTYPE svg PUBLIC "-//W3C//DTD SVG 1.1//EN" "http://www.w3.org/Graphics/SVG/1.1/DTD/svg11.dtd">
<svg version="1.1" id="Layer_1" xmlns="http://www.w3.org/2000/svg" xmlns:xlink="http://www.w3.org/1999/xlink" x="0px" y="0px"
	 width="301px" height="301px" viewBox="0 0 301 301" enable-background="new 0 0 301 301" xml:space="preserve">
<path fill="#1677D6" d="M217.416,89.539l12.705,17.96l31.008-22.384C272.754,104.787,279,127.36,279,150.5
	c0,70.855-57.645,128.5-128.5,128.5C79.645,279,22,221.355,22,150.5C22,79.645,79.645,22,150.5,22
	c25.059,0,49.64,7.375,67.25,19.812l19.875-14.062C211.375,8.75,179.846,0,150.5,0C67.514,0,0,67.514,0,150.5
	C0,233.486,67.514,301,150.5,301c82.986,0,150.5-67.514,150.5-150.5c0-35.178-12.326-69.239-34.762-96.209L217.416,89.539z"/>
<path fill="#1677D6" d="M150.5,205.81c-30.498,0-55.309-24.812-55.309-55.31c0-30.498,24.812-55.309,55.309-55.309
	s55.31,24.812,55.31,55.309C205.81,180.998,180.998,205.81,150.5,205.81z M150.5,131.393c-10.536,0-19.107,8.571-19.107,19.107
	c0,10.535,8.571,19.106,19.107,19.106s19.107-8.571,19.107-19.106C169.607,139.964,161.036,131.393,150.5,131.393z"/>
</svg>
